<!-- Generated by IcoMoon.io -->
<svg version="1.1" xmlns="http://www.w3.org/2000/svg" width="32" height="32" viewBox="0 0 32 32">
<title>smooth-angled-line</title>
<path fill="#637282" d="M11.733 25.003h-5.749c-0.589 0-1.067-0.478-1.067-1.067s0.478-1.067 1.067-1.067v0h5.749c1.767 0 3.2-1.433 3.2-3.2v0-7.467c0-2.946 2.388-5.333 5.333-5.333v0h6.507c0.589 0 1.067 0.478 1.067 1.067s-0.478 1.067-1.067 1.067v0h-6.507c-1.767 0-3.2 1.433-3.2 3.2v0 7.467c0 2.946-2.388 5.333-5.333 5.333v0z"></path>
</svg>
